<svg xmlns="http://www.w3.org/2000/svg" viewBox="0 0 512 512" role="img" aria-label="FoodSense">
  <defs>
    <linearGradient id="sky" x1="80" y1="40" x2="430" y2="410" gradientUnits="userSpaceOnUse">
      <stop stop-color="#d9f4ff"/>
      <stop offset="0.62" stop-color="#fff7ec"/>
      <stop offset="1" stop-color="#e9f9dd"/>
    </linearGradient>
    <linearGradient id="cream" x1="185" y1="138" x2="315" y2="414" gradientUnits="userSpaceOnUse">
      <stop stop-color="#fffdf6"/>
      <stop offset="1" stop-color="#f3ead8"/>
    </linearGradient>
    <linearGradient id="purple" x1="160" y1="96" x2="382" y2="316" gradientUnits="userSpaceOnUse">
      <stop stop-color="#c078ff"/>
      <stop offset="0.52" stop-color="#8c45d1"/>
      <stop offset="1" stop-color="#6a2aa0"/>
    </linearGradient>
    <linearGradient id="leaf" x1="117" y1="93" x2="201" y2="147" gradientUnits="userSpaceOnUse">
      <stop stop-color="#9ad93a"/>
      <stop offset="1" stop-color="#34a853"/>
    </linearGradient>
    <filter id="shadow" x="-20%" y="-20%" width="140%" height="150%">
      <feDropShadow dx="0" dy="9" stdDeviation="10" flood-color="#3b244d" flood-opacity="0.24"/>
    </filter>
  </defs>
  <rect width="512" height="512" rx="112" fill="url(#sky)"/>
  <path d="M0 354c68-57 128-50 181-28 64 27 114 34 186 1 57-26 103-9 145 19v166H0Z" fill="#9bdc30"/>
  <path d="M0 420c81-42 146-40 214-11 80 35 152 33 298-22v125H0Z" fill="#2f8f5c"/>
  <g filter="url(#shadow)">
    <path d="M159 164c-1-61 38-96 93-99 41-2 59-36 49-63 57 5 110 50 107 112 44 16 68 49 62 90l-34 210c-8 44-45 76-90 76H196c-45 0-82-32-90-76L73 206c-6-39 28-65 86-42Z" fill="#5d278b"/>
    <path d="M179 184c-2-56 31-84 76-88 47-5 74-39 67-74 53 19 85 64 73 113 39 10 58 34 56 67l-31 205c-6 31-32 54-64 54H188c-32 0-58-23-64-54L93 205c-3-24 30-39 86-21Z" fill="url(#cream)"/>
    <path d="M129 152c47-24 225-27 315 2 17 5 27 22 22 39l-5 19c-5 16-21 26-38 22-86-22-194-23-286-1-17 4-34-6-39-23l-6-20c-5-16 4-32 37-38Z" fill="url(#purple)"/>
    <path d="M138 172c78-22 213-22 300 1" fill="none" stroke="#d7a0ff" stroke-width="18" stroke-linecap="round" opacity=".75"/>
    <path d="M146 343c72 39 161 36 241-10l-12 75c-4 21-22 36-43 36H207c-23 0-42-16-45-39Z" fill="#b27cf0" opacity=".78"/>
    <path d="M302 25c52 20 84 54 91 94-35-24-77-28-124-16 42-20 51-50 33-78Z" fill="#e1a5ff"/>
    <path d="M260 104c39-15 82-11 127 12" fill="none" stroke="#f3d9ff" stroke-width="20" stroke-linecap="round" opacity=".72"/>
    <path d="M94 205c-39-25-64-7-68 25-5 37 9 79 36 106 22 21 55 5 45-28l-15-46c23 19 48 15 50-8 2-19-14-31-39-40Z" fill="#6c3bab"/>
    <path d="M64 236c-7 34 6 65 35 92" fill="none" stroke="#9b65db" stroke-width="17" stroke-linecap="round"/>
    <path d="M169 70c-40-8-72 4-94 32 35 17 69 12 102-19 11-10 6-10-8-13Z" fill="url(#leaf)" stroke="#2f8f5c" stroke-width="7"/>
    <path d="M101 101c26-1 48-7 70-21" fill="none" stroke="#e6ff95" stroke-width="8" stroke-linecap="round"/>
    <circle cx="207" cy="261" r="31" fill="#24133a"/>
    <circle cx="336" cy="261" r="31" fill="#24133a"/>
    <circle cx="218" cy="248" r="10" fill="#fff"/>
    <circle cx="347" cy="248" r="10" fill="#fff"/>
    <path d="M240 314c22 31 68 32 91 0 7-10 0-24-13-24h-65c-13 0-20 14-13 24Z" fill="#2b163c"/>
    <path d="M268 322c17 12 36 12 53 0-6 24-46 28-53 0Z" fill="#ff6f86"/>
    <ellipse cx="159" cy="294" rx="28" ry="18" fill="#ff8fbd" opacity=".82"/>
    <ellipse cx="382" cy="294" rx="28" ry="18" fill="#ff8fbd" opacity=".82"/>
  </g>
  <path d="M434 154l10 21 21 10-21 10-10 21-10-21-21-10 21-10Z" fill="#ffc629"/>
  <path d="M82 165l12 27 27 12-27 12-12 27-12-27-27-12 27-12Z" fill="#ffc629"/>
  <path d="M439 337l7 16 16 7-16 7-7 16-7-16-16-7 16-7Z" fill="#fff"/>
</svg>
